<?xml version="1.0" encoding="utf-8"?>
<!-- Generator: Adobe Illustrator 25.2.1, SVG Export Plug-In . SVG Version: 6.00 Build 0)  -->
<svg version="1.1" id="Camada_1" xmlns="http://www.w3.org/2000/svg" xmlns:xlink="http://www.w3.org/1999/xlink" x="0px" y="0px"
	 viewBox="0 0 666 252" style="enable-background:new 0 0 666 252;" xml:space="preserve">
<style type="text/css">
	.st0{display:none;}
	.st1{display:inline;}
	.st2{fill:#191919;}
	.st3{fill:#B0FEFE;}
	.st4{fill:#F7F7F7;}
</style>
<g class="st0">
	<g class="st1">
		<path class="st2" d="M275.4,5.4h-26.3v14.7h23.5v4.4h-23.5v15.1h26.6V44h-31.5V0.9h31.2V5.4z"/>
		<path class="st2" d="M302.1,14.4c0.3,0.8,0.9,1.6,1.8,2.3c0.9,0.7,2.1,1.3,3.6,1.8c1.5,0.6,3.5,1.1,5.8,1.6
			c4.8,1.1,8.3,2.5,10.6,4.4c2.3,1.9,3.4,4.5,3.4,7.8c0,1.9-0.4,3.5-1.1,5.1c-0.7,1.5-1.7,2.8-3,3.9c-1.3,1.1-2.8,1.9-4.6,2.5
			c-1.8,0.6-3.8,0.9-5.9,0.9c-3.4,0-6.6-0.6-9.5-1.7c-2.9-1.1-5.6-2.8-8.2-5.2l3-3.6c2.3,2.1,4.5,3.6,6.8,4.6c2.3,1,4.9,1.5,7.9,1.5
			c2.9,0,5.2-0.7,7-2c1.7-1.4,2.6-3.1,2.6-5.4c0-1-0.2-1.9-0.5-2.7c-0.3-0.8-0.9-1.5-1.7-2.2c-0.8-0.7-2-1.3-3.4-1.8
			c-1.5-0.5-3.3-1-5.6-1.5c-2.5-0.5-4.6-1.2-6.4-1.8c-1.8-0.7-3.3-1.5-4.5-2.5c-1.2-1-2.1-2.1-2.7-3.5c-0.6-1.3-0.9-2.9-0.9-4.7
			c0-1.7,0.3-3.3,1-4.7c0.7-1.4,1.7-2.7,3-3.7s2.8-1.9,4.5-2.5c1.7-0.6,3.6-0.9,5.7-0.9c3.2,0,5.9,0.4,8.3,1.3
			c2.4,0.9,4.6,2.2,6.9,3.9l-2.8,3.8c-2-1.6-4-2.8-6.1-3.6s-4.2-1.1-6.4-1.1c-1.4,0-2.7,0.2-3.8,0.6c-1.1,0.4-2.1,0.9-2.9,1.5
			c-0.8,0.6-1.4,1.4-1.8,2.2c-0.4,0.9-0.6,1.8-0.6,2.8C301.6,12.7,301.7,13.6,302.1,14.4z"/>
		<path class="st2" d="M380.4,20.8c-0.9,1.8-2.1,3.2-3.7,4.4c-1.5,1.2-3.3,2.1-5.4,2.7c-2.1,0.6-4.2,0.9-6.5,0.9h-10.5V44h-4.9V0.9
			h16.1c2.4,0,4.6,0.3,6.6,1c2,0.6,3.7,1.5,5.1,2.7c1.4,1.2,2.5,2.6,3.3,4.3c0.8,1.7,1.1,3.6,1.1,5.8C381.8,17,381.3,19,380.4,20.8z
			 M373.7,7.8c-2.1-1.6-4.9-2.4-8.4-2.4h-10.9v19h10.7c1.8,0,3.4-0.2,4.8-0.7c1.5-0.5,2.7-1.1,3.8-1.9c1-0.8,1.9-1.8,2.4-3
			c0.6-1.2,0.8-2.5,0.8-3.9C376.9,11.7,375.9,9.4,373.7,7.8z"/>
		<path class="st2" d="M438.8,44h-5.2l-5-11.4h-23.5L399.9,44h-5l19.6-43.4h4.6L438.8,44z M416.8,6.3l-9.9,22h19.6L416.8,6.3z"/>
		<path class="st2" d="M468.8,42.1c-2.3-1.3-4.3-2.9-5.9-4.8c-1.6-1.9-2.9-4.2-3.8-6.7s-1.4-5.2-1.4-8.1c0-3.1,0.5-6,1.6-8.7
			c1.1-2.7,2.6-5.1,4.5-7.1c1.9-2,4.2-3.6,6.9-4.8c2.7-1.2,5.6-1.8,8.7-1.8c2,0,3.7,0.2,5.3,0.5c1.6,0.3,3,0.8,4.4,1.4
			c1.4,0.6,2.6,1.3,3.8,2.2c1.1,0.8,2.3,1.8,3.3,2.8l-3.3,3.6c-1.8-1.7-3.8-3.1-5.9-4.2c-2.1-1.1-4.6-1.7-7.6-1.7
			c-2.4,0-4.6,0.5-6.6,1.4s-3.8,2.2-5.3,3.8c-1.5,1.6-2.7,3.5-3.5,5.6c-0.8,2.2-1.3,4.5-1.3,7c0,2.5,0.4,4.8,1.3,7
			c0.8,2.2,2,4.1,3.5,5.7c1.5,1.6,3.3,2.9,5.3,3.8c2,0.9,4.2,1.4,6.6,1.4c3,0,5.5-0.5,7.6-1.6c2.1-1.1,4.2-2.6,6.3-4.6l3.2,3.1
			c-1.1,1.1-2.2,2.1-3.3,3c-1.2,0.9-2.4,1.7-3.7,2.3c-1.3,0.7-2.7,1.2-4.2,1.6c-1.5,0.4-3.2,0.6-5,0.7l-4.1,8.8l-4.6-2.1l4.7-6.9
			C473.6,44.2,471.1,43.4,468.8,42.1z"/>
		<path class="st2" d="M557.8,30.9c-1.1,2.7-2.6,5.1-4.5,7.1c-1.9,2.1-4.2,3.7-7,4.9s-5.7,1.8-9,1.8c-3.3,0-6.3-0.6-9-1.8
			c-2.7-1.2-5-2.8-6.9-4.8c-1.9-2-3.4-4.4-4.5-7.1c-1-2.7-1.6-5.5-1.6-8.5c0-3,0.5-5.8,1.6-8.5c1.1-2.7,2.6-5.1,4.5-7.1
			c1.9-2.1,4.2-3.7,7-4.9s5.7-1.8,9-1.8c3.3,0,6.3,0.6,9,1.8c2.7,1.2,5,2.8,6.9,4.8c1.9,2,3.4,4.4,4.5,7.1s1.6,5.5,1.6,8.5
			C559.4,25.4,558.9,28.2,557.8,30.9z M553.1,15.6c-0.8-2.2-2-4.1-3.5-5.7c-1.5-1.6-3.3-2.9-5.4-3.8c-2.1-0.9-4.3-1.4-6.8-1.4
			c-2.5,0-4.7,0.5-6.8,1.4c-2.1,0.9-3.8,2.2-5.3,3.8c-1.5,1.6-2.6,3.5-3.5,5.6c-0.8,2.2-1.3,4.5-1.3,6.9s0.4,4.8,1.3,7
			c0.8,2.2,2,4.1,3.5,5.7c1.5,1.6,3.3,2.9,5.4,3.8c2.1,0.9,4.3,1.4,6.8,1.4c2.5,0,4.7-0.5,6.8-1.4c2.1-0.9,3.8-2.2,5.3-3.8
			c1.5-1.6,2.6-3.5,3.5-5.6c0.8-2.2,1.3-4.5,1.3-6.9C554.4,20.1,553.9,17.7,553.1,15.6z"/>
		<path class="st2" d="M279.2,111.4c-1.1,2.6-2.7,4.9-4.7,6.9c-2,1.9-4.5,3.4-7.3,4.6c-2.8,1.1-5.9,1.7-9.3,1.7h-15V81.4h15
			c3.4,0,6.5,0.5,9.3,1.6c2.8,1.1,5.2,2.6,7.3,4.5c2,1.9,3.6,4.2,4.7,6.8c1.1,2.6,1.7,5.5,1.7,8.5
			C280.9,105.9,280.3,108.8,279.2,111.4z M274.6,96.3c-0.8-2.1-2-3.9-3.6-5.4c-1.5-1.5-3.4-2.7-5.6-3.6s-4.7-1.3-7.4-1.3h-10.1V120
			H258c2.7,0,5.2-0.4,7.4-1.3c2.2-0.9,4.1-2.1,5.6-3.6c1.5-1.5,2.7-3.3,3.6-5.4c0.8-2.1,1.3-4.3,1.3-6.7
			C275.8,100.7,275.4,98.4,274.6,96.3z"/>
		<path class="st2" d="M334.6,85.9h-26.3v14.7h23.5v4.4h-23.5v15.1h26.6v4.4h-31.5V81.4h31.2V85.9z"/>
		<path class="st2" d="M424,111.4c-1.1,2.6-2.7,4.9-4.7,6.9c-2,1.9-4.5,3.4-7.3,4.6c-2.8,1.1-5.9,1.7-9.3,1.7h-15V81.4h15
			c3.4,0,6.5,0.5,9.3,1.6c2.8,1.1,5.2,2.6,7.3,4.5c2,1.9,3.6,4.2,4.7,6.8c1.1,2.6,1.7,5.5,1.7,8.5
			C425.7,105.9,425.1,108.8,424,111.4z M419.4,96.3c-0.8-2.1-2-3.9-3.6-5.4c-1.5-1.5-3.4-2.7-5.6-3.6c-2.2-0.9-4.7-1.3-7.4-1.3
			h-10.1V120h10.1c2.7,0,5.2-0.4,7.4-1.3c2.2-0.9,4.1-2.1,5.6-3.6c1.5-1.5,2.7-3.3,3.6-5.4c0.8-2.1,1.3-4.3,1.3-6.7
			C420.7,100.7,420.2,98.4,419.4,96.3z"/>
		<path class="st2" d="M485.6,124.5h-5.2l-5-11.4h-23.5l-5.1,11.4h-5l19.6-43.4h4.6L485.6,124.5z M463.6,86.8l-9.9,22h19.6
			L463.6,86.8z"/>
		<path class="st2" d="M538.1,81.4h4.7v43.1H539l-27.8-35.3v35.3h-4.7V81.4h4.6l27.2,34.5V81.4z"/>
		<path class="st2" d="M576.6,122.6c-2.3-1.3-4.3-2.9-5.9-4.8c-1.6-1.9-2.9-4.2-3.8-6.7c-0.9-2.5-1.4-5.2-1.4-8.1
			c0-3.1,0.5-6,1.6-8.7c1.1-2.7,2.6-5.1,4.5-7.1c1.9-2,4.2-3.6,6.9-4.8c2.7-1.2,5.6-1.8,8.7-1.8c2,0,3.7,0.2,5.3,0.5
			c1.6,0.3,3,0.8,4.4,1.4c1.4,0.6,2.6,1.3,3.8,2.2c1.1,0.8,2.3,1.8,3.3,2.8l-3.3,3.6c-1.8-1.7-3.8-3.1-5.9-4.2
			c-2.1-1.1-4.6-1.7-7.6-1.7c-2.4,0-4.6,0.5-6.6,1.4s-3.8,2.2-5.3,3.8c-1.5,1.6-2.7,3.5-3.5,5.6c-0.8,2.2-1.3,4.5-1.3,7
			c0,2.5,0.4,4.8,1.3,7c0.8,2.2,2,4.1,3.5,5.7c1.5,1.6,3.3,2.9,5.3,3.8c2,0.9,4.2,1.4,6.6,1.4c3,0,5.5-0.5,7.6-1.6
			c2.1-1.1,4.2-2.6,6.3-4.6l3.2,3.1c-1.1,1.1-2.2,2.1-3.3,3c-1.1,0.9-2.4,1.7-3.7,2.3c-1.3,0.7-2.7,1.2-4.2,1.6
			c-1.5,0.4-3.2,0.6-5,0.7l-4.1,8.8l-4.6-2.1l4.7-6.9C581.4,124.7,578.9,123.9,576.6,122.6z"/>
		<path class="st2" d="M665.3,124.5H660l-5-11.4h-23.5l-5.1,11.4h-5l19.6-43.4h4.6L665.3,124.5z M643.3,86.8l-9.9,22h19.6
			L643.3,86.8z"/>
	</g>
	<g id="_x31__8_" class="st1">
		<path class="st2" d="M613.4,227.9c-16.3,5.5-32.8,11-49.8,13.9c-2.9,0.5-5.9,0.9-8.9,1.1c-12.9,0.5-24.8,0.1-35.8-1.3
			c-11-1.3-21.6-4.1-32-8.2c-10.4-4.1-18.6-7.9-24.8-11.1c-6.2-3.3-15-8.2-26.5-14.8l-7.3-4.4c-10.7-6.3-53.7-27-54.1-27
			c0,0-1.4-0.6-3.6-1.5c-2.5-1-6.1-2.5-10-4.1c-7.6-3-16.2-6.3-20.3-7.4c-2.6-0.7-5.9-1.4-9.7-2.2c-3.2-0.6-6.6-1.2-10-1.7
			c-5.4-0.7-10.8-1.2-15.4-1c-46,2-59,8.9-67.3,10.8c-1.8,0.4-3.6,0.8-5.3,1.2L165.2,0.9h-28.1l-5.5,12.8L68,171.1l-4.7-2.2
			c-4.4-2.2-11.1-5.5-20.1-9.9c-8.5-4.1-15-7.2-19.5-9.3c-4.5-2.1-11-4.7-19.4-8c-1.3-0.5-2.5-0.9-3.7-1.4l63.7,37.4l-1.1,4.8
			l-28.1,69h7.3l28.9-70.9l4.4,1.8c1.9,0.7,3.8,1.5,5.5,2.2l1.8,0.7c22.4,7.8,44.7,11.4,66.8,11c9-0.2,18-1,26.9-2.4
			c8.2-1.3,28.3-6.7,29.6-7.4l25.3,65.3h34l-1.1-2.9L237,181.2c29.6-7.3,59.4-7.2,83.6-2.4c3.5,0.7,6.8,1.5,10,2.4
			c7.5,2,14.3,4.6,20.2,7.5c3.2,1.6,6.5,3.2,9.8,4.8c3.3,1.6,6.7,3.3,10,4.9c11.6,5.6,23.2,11,34.8,16.5
			c22.1,10.4,44.3,21.8,67.6,29c31.6,9.7,65.2,8.3,97,0.6c33.1-8,64.3-22.2,95.2-36.3C648.5,215.8,631,222,613.4,227.9z
			 M199.9,181.8c-3.1,1.2-7,2.6-7.6,2.7c-13.2,4-27.6,5.2-41.4,5.2c-24.4,0-48.6-4.7-72.7-14.2l-4.4-1.8l63.9-160
			c0,0,66.1,166,66.1,166.2C204,180.1,202.2,180.9,199.9,181.8z"/>
	</g>
</g>
<g class="st0">
	<g class="st1">
		<path class="st2" d="M275.4,5.4h-26.3v14.7h23.5v4.4h-23.5v15.1h26.6V44h-31.5V0.9h31.2V5.4z"/>
		<path class="st2" d="M302.1,14.4c0.3,0.8,0.9,1.6,1.8,2.3c0.9,0.7,2.1,1.3,3.6,1.8c1.5,0.6,3.5,1.1,5.8,1.6
			c4.8,1.1,8.3,2.5,10.6,4.4c2.3,1.9,3.4,4.5,3.4,7.8c0,1.9-0.4,3.5-1.1,5.1c-0.7,1.5-1.7,2.8-3,3.9c-1.3,1.1-2.8,1.9-4.6,2.5
			c-1.8,0.6-3.8,0.9-5.9,0.9c-3.4,0-6.6-0.6-9.5-1.7c-2.9-1.1-5.6-2.8-8.2-5.2l3-3.6c2.3,2.1,4.5,3.6,6.8,4.6c2.3,1,4.9,1.5,7.9,1.5
			c2.9,0,5.2-0.7,7-2c1.7-1.4,2.6-3.1,2.6-5.4c0-1-0.2-1.9-0.5-2.7c-0.3-0.8-0.9-1.5-1.7-2.2c-0.8-0.7-2-1.3-3.4-1.8
			c-1.5-0.5-3.3-1-5.6-1.5c-2.5-0.5-4.6-1.2-6.4-1.8c-1.8-0.7-3.3-1.5-4.5-2.5c-1.2-1-2.1-2.1-2.7-3.5c-0.6-1.3-0.9-2.9-0.9-4.7
			c0-1.7,0.3-3.3,1-4.7c0.7-1.4,1.7-2.7,3-3.7s2.8-1.9,4.5-2.5c1.7-0.6,3.6-0.9,5.7-0.9c3.2,0,5.9,0.4,8.3,1.3
			c2.4,0.9,4.6,2.2,6.9,3.9l-2.8,3.8c-2-1.6-4-2.8-6.1-3.6s-4.2-1.1-6.4-1.1c-1.4,0-2.7,0.2-3.8,0.6c-1.1,0.4-2.1,0.9-2.9,1.5
			c-0.8,0.6-1.4,1.4-1.8,2.2c-0.4,0.9-0.6,1.8-0.6,2.8C301.6,12.7,301.7,13.6,302.1,14.4z"/>
		<path class="st2" d="M380.4,20.8c-0.9,1.8-2.1,3.2-3.7,4.4c-1.5,1.2-3.3,2.1-5.4,2.7c-2.1,0.6-4.2,0.9-6.5,0.9h-10.5V44h-4.9V0.9
			h16.1c2.4,0,4.6,0.3,6.6,1c2,0.6,3.7,1.5,5.1,2.7c1.4,1.2,2.5,2.6,3.3,4.3c0.8,1.7,1.1,3.6,1.1,5.8C381.8,17,381.3,19,380.4,20.8z
			 M373.7,7.8c-2.1-1.6-4.9-2.4-8.4-2.4h-10.9v19h10.7c1.8,0,3.4-0.2,4.8-0.7c1.5-0.5,2.7-1.1,3.8-1.9c1-0.8,1.9-1.8,2.4-3
			c0.6-1.2,0.8-2.5,0.8-3.9C376.9,11.7,375.9,9.4,373.7,7.8z"/>
		<path class="st2" d="M438.8,44h-5.2l-5-11.4h-23.5L399.9,44h-5l19.6-43.4h4.6L438.8,44z M416.8,6.3l-9.9,22h19.6L416.8,6.3z"/>
		<path class="st2" d="M468.8,42.1c-2.3-1.3-4.3-2.9-5.9-4.8c-1.6-1.9-2.9-4.2-3.8-6.7s-1.4-5.2-1.4-8.1c0-3.1,0.5-6,1.6-8.7
			c1.1-2.7,2.6-5.1,4.5-7.1c1.9-2,4.2-3.6,6.9-4.8c2.7-1.2,5.6-1.8,8.7-1.8c2,0,3.7,0.2,5.3,0.5c1.6,0.3,3,0.8,4.4,1.4
			c1.4,0.6,2.6,1.3,3.8,2.2c1.1,0.8,2.3,1.8,3.3,2.8l-3.3,3.6c-1.8-1.7-3.8-3.1-5.9-4.2c-2.1-1.1-4.6-1.7-7.6-1.7
			c-2.4,0-4.6,0.5-6.6,1.4s-3.8,2.2-5.3,3.8c-1.5,1.6-2.7,3.5-3.5,5.6c-0.8,2.2-1.3,4.5-1.3,7c0,2.5,0.4,4.8,1.3,7
			c0.8,2.2,2,4.1,3.5,5.7c1.5,1.6,3.3,2.9,5.3,3.8c2,0.9,4.2,1.4,6.6,1.4c3,0,5.5-0.5,7.6-1.6c2.1-1.1,4.2-2.6,6.3-4.6l3.2,3.1
			c-1.1,1.1-2.2,2.1-3.3,3c-1.2,0.9-2.4,1.7-3.7,2.3c-1.3,0.7-2.7,1.2-4.2,1.6c-1.5,0.4-3.2,0.6-5,0.7l-4.1,8.8l-4.6-2.1l4.7-6.9
			C473.6,44.2,471.1,43.4,468.8,42.1z"/>
		<path class="st2" d="M557.8,30.9c-1.1,2.7-2.6,5.1-4.5,7.1c-1.9,2.1-4.2,3.7-7,4.9s-5.7,1.8-9,1.8c-3.3,0-6.3-0.6-9-1.8
			c-2.7-1.2-5-2.8-6.9-4.8c-1.9-2-3.4-4.4-4.5-7.1c-1-2.7-1.6-5.5-1.6-8.5c0-3,0.5-5.8,1.6-8.5c1.1-2.7,2.6-5.1,4.5-7.1
			c1.9-2.1,4.2-3.7,7-4.9s5.7-1.8,9-1.8c3.3,0,6.3,0.6,9,1.8c2.7,1.2,5,2.8,6.9,4.8c1.9,2,3.4,4.4,4.5,7.1s1.6,5.5,1.6,8.5
			C559.4,25.4,558.9,28.2,557.8,30.9z M553.1,15.6c-0.8-2.2-2-4.1-3.5-5.7c-1.5-1.6-3.3-2.9-5.4-3.8c-2.1-0.9-4.3-1.4-6.8-1.4
			c-2.5,0-4.7,0.5-6.8,1.4c-2.1,0.9-3.8,2.2-5.3,3.8c-1.5,1.6-2.6,3.5-3.5,5.6c-0.8,2.2-1.3,4.5-1.3,6.9s0.4,4.8,1.3,7
			c0.8,2.2,2,4.1,3.5,5.7c1.5,1.6,3.3,2.9,5.4,3.8c2.1,0.9,4.3,1.4,6.8,1.4c2.5,0,4.7-0.5,6.8-1.4c2.1-0.9,3.8-2.2,5.3-3.8
			c1.5-1.6,2.6-3.5,3.5-5.6c0.8-2.2,1.3-4.5,1.3-6.9C554.4,20.1,553.9,17.7,553.1,15.6z"/>
		<path class="st2" d="M279.2,111.4c-1.1,2.6-2.7,4.9-4.7,6.9c-2,1.9-4.5,3.4-7.3,4.6c-2.8,1.1-5.9,1.7-9.3,1.7h-15V81.4h15
			c3.4,0,6.5,0.5,9.3,1.6c2.8,1.1,5.2,2.6,7.3,4.5c2,1.9,3.6,4.2,4.7,6.8c1.1,2.6,1.7,5.5,1.7,8.5
			C280.9,105.9,280.3,108.8,279.2,111.4z M274.6,96.3c-0.8-2.1-2-3.9-3.6-5.4c-1.5-1.5-3.4-2.7-5.6-3.6s-4.7-1.3-7.4-1.3h-10.1V120
			H258c2.7,0,5.2-0.4,7.4-1.3c2.2-0.9,4.1-2.1,5.6-3.6c1.5-1.5,2.7-3.3,3.6-5.4c0.8-2.1,1.3-4.3,1.3-6.7
			C275.8,100.7,275.4,98.4,274.6,96.3z"/>
		<path class="st2" d="M334.6,85.9h-26.3v14.7h23.5v4.4h-23.5v15.1h26.6v4.4h-31.5V81.4h31.2V85.9z"/>
		<path class="st2" d="M424,111.4c-1.1,2.6-2.7,4.9-4.7,6.9c-2,1.9-4.5,3.4-7.3,4.6c-2.8,1.1-5.9,1.7-9.3,1.7h-15V81.4h15
			c3.4,0,6.5,0.5,9.3,1.6c2.8,1.1,5.2,2.6,7.3,4.5c2,1.9,3.6,4.2,4.7,6.8c1.1,2.6,1.7,5.5,1.7,8.5
			C425.7,105.9,425.1,108.8,424,111.4z M419.4,96.3c-0.8-2.1-2-3.9-3.6-5.4c-1.5-1.5-3.4-2.7-5.6-3.6c-2.2-0.9-4.7-1.3-7.4-1.3
			h-10.1V120h10.1c2.7,0,5.2-0.4,7.4-1.3c2.2-0.9,4.1-2.1,5.6-3.6c1.5-1.5,2.7-3.3,3.6-5.4c0.8-2.1,1.3-4.3,1.3-6.7
			C420.7,100.7,420.2,98.4,419.4,96.3z"/>
		<path class="st2" d="M485.6,124.5h-5.2l-5-11.4h-23.5l-5.1,11.4h-5l19.6-43.4h4.6L485.6,124.5z M463.6,86.8l-9.9,22h19.6
			L463.6,86.8z"/>
		<path class="st2" d="M538.1,81.4h4.7v43.1H539l-27.8-35.3v35.3h-4.7V81.4h4.6l27.2,34.5V81.4z"/>
		<path class="st2" d="M576.6,122.6c-2.3-1.3-4.3-2.9-5.9-4.8c-1.6-1.9-2.9-4.2-3.8-6.7c-0.9-2.5-1.4-5.2-1.4-8.1
			c0-3.1,0.5-6,1.6-8.7c1.1-2.7,2.6-5.1,4.5-7.1c1.9-2,4.2-3.6,6.9-4.8c2.7-1.2,5.6-1.8,8.7-1.8c2,0,3.7,0.2,5.3,0.5
			c1.6,0.3,3,0.8,4.4,1.4c1.4,0.6,2.6,1.3,3.8,2.2c1.1,0.8,2.3,1.8,3.3,2.8l-3.3,3.6c-1.8-1.7-3.8-3.1-5.9-4.2
			c-2.1-1.1-4.6-1.7-7.6-1.7c-2.4,0-4.6,0.5-6.6,1.4s-3.8,2.2-5.3,3.8c-1.5,1.6-2.7,3.5-3.5,5.6c-0.8,2.2-1.3,4.5-1.3,7
			c0,2.5,0.4,4.8,1.3,7c0.8,2.2,2,4.1,3.5,5.7c1.5,1.6,3.3,2.9,5.3,3.8c2,0.9,4.2,1.4,6.6,1.4c3,0,5.5-0.5,7.6-1.6
			c2.1-1.1,4.2-2.6,6.3-4.6l3.2,3.1c-1.1,1.1-2.2,2.1-3.3,3c-1.1,0.9-2.4,1.7-3.7,2.3c-1.3,0.7-2.7,1.2-4.2,1.6
			c-1.5,0.4-3.2,0.6-5,0.7l-4.1,8.8l-4.6-2.1l4.7-6.9C581.4,124.7,578.9,123.9,576.6,122.6z"/>
		<path class="st2" d="M665.3,124.5H660l-5-11.4h-23.5l-5.1,11.4h-5l19.6-43.4h4.6L665.3,124.5z M643.3,86.8l-9.9,22h19.6
			L643.3,86.8z"/>
	</g>
	<g id="_x31__11_" class="st1">
		<path class="st3" d="M613.4,227.9c-16.3,5.5-32.8,11-49.8,13.9c-2.9,0.5-5.9,0.9-8.9,1.1c-12.9,0.5-24.8,0.1-35.8-1.3
			c-11-1.3-21.6-4.1-32-8.2c-10.4-4.1-18.6-7.9-24.8-11.1c-6.2-3.3-15-8.2-26.5-14.8l-7.3-4.4c-10.7-6.3-53.7-27-54.1-27
			c0,0-1.4-0.6-3.6-1.5c-2.5-1-6.1-2.5-10-4.1c-7.6-3-16.2-6.3-20.3-7.4c-2.6-0.7-5.9-1.4-9.7-2.2c-3.2-0.6-6.6-1.2-10-1.7
			c-5.4-0.7-10.8-1.2-15.4-1c-46,2-59,8.9-67.3,10.8c-1.8,0.4-3.6,0.8-5.3,1.2L165.2,0.9h-28.1l-5.5,12.8L68,171.1l-4.7-2.2
			c-4.4-2.2-11.1-5.5-20.1-9.9c-8.5-4.1-15-7.2-19.5-9.3c-4.5-2.1-11-4.7-19.4-8c-1.3-0.5-2.5-0.9-3.7-1.4l63.7,37.4l-1.1,4.8
			l-28.1,69h7.3l28.9-70.9l4.4,1.8c1.9,0.7,3.8,1.5,5.5,2.2l1.8,0.7c22.4,7.8,44.7,11.4,66.8,11c9-0.2,18-1,26.9-2.4
			c8.2-1.3,28.3-6.7,29.6-7.4l25.3,65.3h34l-1.1-2.9L237,181.2c29.6-7.3,59.4-7.2,83.6-2.4c3.5,0.7,6.8,1.5,10,2.4
			c7.5,2,14.3,4.6,20.2,7.5c3.2,1.6,6.5,3.2,9.8,4.8c3.3,1.6,6.7,3.3,10,4.9c11.6,5.6,23.2,11,34.8,16.5
			c22.1,10.4,44.3,21.8,67.6,29c31.6,9.7,65.2,8.3,97,0.6c33.1-8,64.3-22.2,95.2-36.3C648.5,215.8,631,222,613.4,227.9z
			 M199.9,181.8c-3.1,1.2-7,2.6-7.6,2.7c-13.2,4-27.6,5.2-41.4,5.2c-24.4,0-48.6-4.7-72.7-14.2l-4.4-1.8l63.9-160
			c0,0,66.1,166,66.1,166.2C204,180.1,202.2,180.9,199.9,181.8z"/>
	</g>
</g>
<g class="st0">
	<g class="st1">
		<path class="st4" d="M275.4,5.4h-26.3v14.7h23.5v4.4h-23.5v15.1h26.6V44h-31.5V0.9h31.2V5.4z"/>
		<path class="st4" d="M302.1,14.4c0.3,0.8,0.9,1.6,1.8,2.3c0.9,0.7,2.1,1.3,3.6,1.8c1.5,0.6,3.5,1.1,5.8,1.6
			c4.8,1.1,8.3,2.5,10.6,4.4c2.3,1.9,3.4,4.5,3.4,7.8c0,1.9-0.4,3.5-1.1,5.1c-0.7,1.5-1.7,2.8-3,3.9c-1.3,1.1-2.8,1.9-4.6,2.5
			c-1.8,0.6-3.8,0.9-5.9,0.9c-3.4,0-6.6-0.6-9.5-1.7c-2.9-1.1-5.6-2.8-8.2-5.2l3-3.6c2.3,2.1,4.5,3.6,6.8,4.6c2.3,1,4.9,1.5,7.9,1.5
			c2.9,0,5.2-0.7,7-2c1.7-1.4,2.6-3.1,2.6-5.4c0-1-0.2-1.9-0.5-2.7c-0.3-0.8-0.9-1.5-1.7-2.2c-0.8-0.7-2-1.3-3.4-1.8
			c-1.5-0.5-3.3-1-5.6-1.5c-2.5-0.5-4.6-1.2-6.4-1.8c-1.8-0.7-3.3-1.5-4.5-2.5c-1.2-1-2.1-2.1-2.7-3.5c-0.6-1.3-0.9-2.9-0.9-4.7
			c0-1.7,0.3-3.3,1-4.7c0.7-1.4,1.7-2.7,3-3.7s2.8-1.9,4.5-2.5c1.7-0.6,3.6-0.9,5.7-0.9c3.2,0,5.9,0.4,8.3,1.3
			c2.4,0.9,4.6,2.2,6.9,3.9l-2.8,3.8c-2-1.6-4-2.8-6.1-3.6s-4.2-1.1-6.4-1.1c-1.4,0-2.7,0.2-3.8,0.6c-1.1,0.4-2.1,0.9-2.9,1.5
			c-0.8,0.6-1.4,1.4-1.8,2.2c-0.4,0.9-0.6,1.8-0.6,2.8C301.6,12.7,301.7,13.6,302.1,14.4z"/>
		<path class="st4" d="M380.4,20.8c-0.9,1.8-2.1,3.2-3.7,4.4c-1.5,1.2-3.3,2.1-5.4,2.7c-2.1,0.6-4.2,0.9-6.5,0.9h-10.5V44h-4.9V0.9
			h16.1c2.4,0,4.6,0.3,6.6,1c2,0.6,3.7,1.5,5.1,2.7c1.4,1.2,2.5,2.6,3.3,4.3c0.8,1.7,1.1,3.6,1.1,5.8C381.8,17,381.3,19,380.4,20.8z
			 M373.7,7.8c-2.1-1.6-4.9-2.4-8.4-2.4h-10.9v19h10.7c1.8,0,3.4-0.2,4.8-0.7c1.5-0.5,2.7-1.1,3.8-1.9c1-0.8,1.9-1.8,2.4-3
			c0.6-1.2,0.8-2.5,0.8-3.9C376.9,11.7,375.9,9.4,373.7,7.8z"/>
		<path class="st4" d="M438.8,44h-5.2l-5-11.4h-23.5L399.9,44h-5l19.6-43.4h4.6L438.8,44z M416.8,6.3l-9.9,22h19.6L416.8,6.3z"/>
		<path class="st4" d="M468.8,42.1c-2.3-1.3-4.3-2.9-5.9-4.8c-1.6-1.9-2.9-4.2-3.8-6.7s-1.4-5.2-1.4-8.1c0-3.1,0.5-6,1.6-8.7
			c1.1-2.7,2.6-5.1,4.5-7.1c1.9-2,4.2-3.6,6.9-4.8c2.7-1.2,5.6-1.8,8.7-1.8c2,0,3.7,0.2,5.3,0.5c1.6,0.3,3,0.8,4.4,1.4
			c1.4,0.6,2.6,1.3,3.8,2.2c1.1,0.8,2.3,1.8,3.3,2.8l-3.3,3.6c-1.8-1.7-3.8-3.1-5.9-4.2c-2.1-1.1-4.6-1.7-7.6-1.7
			c-2.4,0-4.6,0.5-6.6,1.4s-3.8,2.2-5.3,3.8c-1.5,1.6-2.7,3.5-3.5,5.6c-0.8,2.2-1.3,4.5-1.3,7c0,2.5,0.4,4.8,1.3,7
			c0.8,2.2,2,4.1,3.5,5.7c1.5,1.6,3.3,2.9,5.3,3.8c2,0.9,4.2,1.4,6.6,1.4c3,0,5.5-0.5,7.6-1.6c2.1-1.1,4.2-2.6,6.3-4.6l3.2,3.1
			c-1.1,1.1-2.2,2.1-3.3,3c-1.2,0.9-2.4,1.7-3.7,2.3c-1.3,0.7-2.7,1.2-4.2,1.6c-1.5,0.4-3.2,0.6-5,0.7l-4.1,8.8l-4.6-2.1l4.7-6.9
			C473.6,44.2,471.1,43.4,468.8,42.1z"/>
		<path class="st4" d="M557.8,30.9c-1.1,2.7-2.6,5.1-4.5,7.1c-1.9,2.1-4.2,3.7-7,4.9s-5.7,1.8-9,1.8c-3.3,0-6.3-0.6-9-1.8
			c-2.7-1.2-5-2.8-6.9-4.8c-1.9-2-3.4-4.4-4.5-7.1c-1-2.7-1.6-5.5-1.6-8.5c0-3,0.5-5.8,1.6-8.5c1.1-2.7,2.6-5.1,4.5-7.1
			c1.9-2.1,4.2-3.7,7-4.9s5.7-1.8,9-1.8c3.3,0,6.3,0.6,9,1.8c2.7,1.2,5,2.8,6.9,4.8c1.9,2,3.4,4.4,4.5,7.1s1.6,5.5,1.6,8.5
			C559.4,25.4,558.9,28.2,557.8,30.9z M553.1,15.6c-0.8-2.2-2-4.1-3.5-5.7c-1.5-1.6-3.3-2.9-5.4-3.8c-2.1-0.9-4.3-1.4-6.8-1.4
			c-2.5,0-4.7,0.5-6.8,1.4c-2.1,0.9-3.8,2.2-5.3,3.8c-1.5,1.6-2.6,3.5-3.5,5.6c-0.8,2.2-1.3,4.5-1.3,6.9s0.4,4.8,1.3,7
			c0.8,2.2,2,4.1,3.5,5.7c1.5,1.6,3.3,2.9,5.4,3.8c2.1,0.9,4.3,1.4,6.8,1.4c2.5,0,4.7-0.5,6.8-1.4c2.1-0.9,3.8-2.2,5.3-3.8
			c1.5-1.6,2.6-3.5,3.5-5.6c0.8-2.2,1.3-4.5,1.3-6.9C554.4,20.1,553.9,17.7,553.1,15.6z"/>
		<path class="st4" d="M279.2,111.4c-1.1,2.6-2.7,4.9-4.7,6.9c-2,1.9-4.5,3.4-7.3,4.6c-2.8,1.1-5.9,1.7-9.3,1.7h-15V81.4h15
			c3.4,0,6.5,0.5,9.3,1.6c2.8,1.1,5.2,2.6,7.3,4.5c2,1.9,3.6,4.2,4.7,6.8c1.1,2.6,1.7,5.5,1.7,8.5
			C280.9,105.9,280.3,108.8,279.2,111.4z M274.6,96.3c-0.8-2.1-2-3.9-3.6-5.4c-1.5-1.5-3.4-2.7-5.6-3.6s-4.7-1.3-7.4-1.3h-10.1V120
			H258c2.7,0,5.2-0.4,7.4-1.3c2.2-0.9,4.1-2.1,5.6-3.6c1.5-1.5,2.7-3.3,3.6-5.4c0.8-2.1,1.3-4.3,1.3-6.7
			C275.8,100.7,275.4,98.4,274.6,96.3z"/>
		<path class="st4" d="M334.6,85.9h-26.3v14.7h23.5v4.4h-23.5v15.1h26.6v4.4h-31.5V81.4h31.2V85.9z"/>
		<path class="st4" d="M424,111.4c-1.1,2.6-2.7,4.9-4.7,6.9c-2,1.9-4.5,3.4-7.3,4.6c-2.8,1.1-5.9,1.7-9.3,1.7h-15V81.4h15
			c3.4,0,6.5,0.5,9.3,1.6c2.8,1.1,5.2,2.6,7.3,4.5c2,1.9,3.6,4.2,4.7,6.8c1.1,2.6,1.7,5.5,1.7,8.5
			C425.7,105.9,425.1,108.8,424,111.4z M419.4,96.3c-0.8-2.1-2-3.9-3.6-5.4c-1.5-1.5-3.4-2.7-5.6-3.6c-2.2-0.9-4.7-1.3-7.4-1.3
			h-10.1V120h10.1c2.7,0,5.2-0.4,7.4-1.3c2.2-0.9,4.1-2.1,5.6-3.6c1.5-1.5,2.7-3.3,3.6-5.4c0.8-2.1,1.3-4.3,1.3-6.7
			C420.7,100.7,420.2,98.4,419.4,96.3z"/>
		<path class="st4" d="M485.6,124.5h-5.2l-5-11.4h-23.5l-5.1,11.4h-5l19.6-43.4h4.6L485.6,124.5z M463.6,86.8l-9.9,22h19.6
			L463.6,86.8z"/>
		<path class="st4" d="M538.1,81.4h4.7v43.1H539l-27.8-35.3v35.3h-4.7V81.4h4.6l27.2,34.5V81.4z"/>
		<path class="st4" d="M576.6,122.6c-2.3-1.3-4.3-2.9-5.9-4.8c-1.6-1.9-2.9-4.2-3.8-6.7c-0.9-2.5-1.4-5.2-1.4-8.1
			c0-3.1,0.5-6,1.6-8.7c1.1-2.7,2.6-5.1,4.5-7.1c1.9-2,4.2-3.6,6.9-4.8c2.7-1.2,5.6-1.8,8.7-1.8c2,0,3.7,0.2,5.3,0.5
			c1.6,0.3,3,0.8,4.4,1.4c1.4,0.6,2.6,1.3,3.8,2.2c1.1,0.8,2.3,1.8,3.3,2.8l-3.3,3.6c-1.8-1.7-3.8-3.1-5.9-4.2
			c-2.1-1.1-4.6-1.7-7.6-1.7c-2.4,0-4.6,0.5-6.6,1.4s-3.8,2.2-5.3,3.8c-1.5,1.6-2.7,3.5-3.5,5.6c-0.8,2.2-1.3,4.5-1.3,7
			c0,2.5,0.4,4.8,1.3,7c0.8,2.2,2,4.1,3.5,5.7c1.5,1.6,3.3,2.9,5.3,3.8c2,0.9,4.2,1.4,6.6,1.4c3,0,5.5-0.5,7.6-1.6
			c2.1-1.1,4.2-2.6,6.3-4.6l3.2,3.1c-1.1,1.1-2.2,2.1-3.3,3c-1.1,0.9-2.4,1.7-3.7,2.3c-1.3,0.7-2.7,1.2-4.2,1.6
			c-1.5,0.4-3.2,0.6-5,0.7l-4.1,8.8l-4.6-2.1l4.7-6.9C581.4,124.7,578.9,123.9,576.6,122.6z"/>
		<path class="st4" d="M665.3,124.5H660l-5-11.4h-23.5l-5.1,11.4h-5l19.6-43.4h4.6L665.3,124.5z M643.3,86.8l-9.9,22h19.6
			L643.3,86.8z"/>
	</g>
	<g id="_x31__15_" class="st1">
		<path class="st4" d="M613.4,227.9c-16.3,5.5-32.8,11-49.8,13.9c-2.9,0.5-5.9,0.9-8.9,1.1c-12.9,0.5-24.8,0.1-35.8-1.3
			c-11-1.3-21.6-4.1-32-8.2c-10.4-4.1-18.6-7.9-24.8-11.1c-6.2-3.3-15-8.2-26.5-14.8l-7.3-4.4c-10.7-6.3-53.7-27-54.1-27
			c0,0-1.4-0.6-3.6-1.5c-2.5-1-6.1-2.5-10-4.1c-7.6-3-16.2-6.3-20.3-7.4c-2.6-0.7-5.9-1.4-9.7-2.2c-3.2-0.6-6.6-1.2-10-1.7
			c-5.4-0.7-10.8-1.2-15.4-1c-46,2-59,8.9-67.3,10.8c-1.8,0.4-3.6,0.8-5.3,1.2L165.2,0.9h-28.1l-5.5,12.8L68,171.1l-4.7-2.2
			c-4.4-2.2-11.1-5.5-20.1-9.9c-8.5-4.1-15-7.2-19.5-9.3c-4.5-2.1-11-4.7-19.4-8c-1.3-0.5-2.5-0.9-3.7-1.4l63.7,37.4l-1.1,4.8
			l-28.1,69h7.3l28.9-70.9l4.4,1.8c1.9,0.7,3.8,1.5,5.5,2.2l1.8,0.7c22.4,7.8,44.7,11.4,66.8,11c9-0.2,18-1,26.9-2.4
			c8.2-1.3,28.3-6.7,29.6-7.4l25.3,65.3h34l-1.1-2.9L237,181.2c29.6-7.3,59.4-7.2,83.6-2.4c3.5,0.7,6.8,1.5,10,2.4
			c7.5,2,14.3,4.6,20.2,7.5c3.2,1.6,6.5,3.2,9.8,4.8c3.3,1.6,6.7,3.3,10,4.9c11.6,5.6,23.2,11,34.8,16.5
			c22.1,10.4,44.3,21.8,67.6,29c31.6,9.7,65.2,8.3,97,0.6c33.1-8,64.3-22.2,95.2-36.3C648.5,215.8,631,222,613.4,227.9z
			 M199.9,181.8c-3.1,1.2-7,2.6-7.6,2.7c-13.2,4-27.6,5.2-41.4,5.2c-24.4,0-48.6-4.7-72.7-14.2l-4.4-1.8l63.9-160
			c0,0,66.1,166,66.1,166.2C204,180.1,202.2,180.9,199.9,181.8z"/>
	</g>
</g>
<g>
	<g>
		<path class="st4" d="M275.4,5.4h-26.3v14.7h23.5v4.4h-23.5v15.1h26.6V44h-31.5V0.9h31.2V5.4z"/>
		<path class="st4" d="M302.1,14.4c0.3,0.8,0.9,1.6,1.8,2.3c0.9,0.7,2.1,1.3,3.6,1.8c1.5,0.6,3.5,1.1,5.8,1.6
			c4.8,1.1,8.3,2.5,10.6,4.4c2.3,1.9,3.4,4.5,3.4,7.8c0,1.9-0.4,3.5-1.1,5.1c-0.7,1.5-1.7,2.8-3,3.9c-1.3,1.1-2.8,1.9-4.6,2.5
			c-1.8,0.6-3.8,0.9-5.9,0.9c-3.4,0-6.6-0.6-9.5-1.7c-2.9-1.1-5.6-2.8-8.2-5.2l3-3.6c2.3,2.1,4.5,3.6,6.8,4.6c2.3,1,4.9,1.5,7.9,1.5
			c2.9,0,5.2-0.7,7-2c1.7-1.4,2.6-3.1,2.6-5.4c0-1-0.2-1.9-0.5-2.7c-0.3-0.8-0.9-1.5-1.7-2.2c-0.8-0.7-2-1.3-3.4-1.8
			c-1.5-0.5-3.3-1-5.6-1.5c-2.5-0.5-4.6-1.2-6.4-1.8c-1.8-0.7-3.3-1.5-4.5-2.5c-1.2-1-2.1-2.1-2.7-3.5c-0.6-1.3-0.9-2.9-0.9-4.7
			c0-1.7,0.3-3.3,1-4.7c0.7-1.4,1.7-2.7,3-3.7s2.8-1.9,4.5-2.5c1.7-0.6,3.6-0.9,5.7-0.9c3.2,0,5.9,0.4,8.3,1.3
			c2.4,0.9,4.6,2.2,6.9,3.9l-2.8,3.8c-2-1.6-4-2.8-6.1-3.6s-4.2-1.1-6.4-1.1c-1.4,0-2.7,0.2-3.8,0.6c-1.1,0.4-2.1,0.9-2.9,1.5
			c-0.8,0.6-1.4,1.4-1.8,2.2c-0.4,0.9-0.6,1.8-0.6,2.8C301.6,12.7,301.7,13.6,302.1,14.4z"/>
		<path class="st4" d="M380.4,20.8c-0.9,1.8-2.1,3.2-3.7,4.4c-1.5,1.2-3.3,2.1-5.4,2.7c-2.1,0.6-4.2,0.9-6.5,0.9h-10.5V44h-4.9V0.9
			h16.1c2.4,0,4.6,0.3,6.6,1c2,0.6,3.7,1.5,5.1,2.7c1.4,1.2,2.5,2.6,3.3,4.3c0.8,1.7,1.1,3.6,1.1,5.8C381.8,17,381.3,19,380.4,20.8z
			 M373.7,7.8c-2.1-1.6-4.9-2.4-8.4-2.4h-10.9v19h10.7c1.8,0,3.4-0.2,4.8-0.7c1.5-0.5,2.7-1.1,3.8-1.9c1-0.8,1.9-1.8,2.4-3
			c0.6-1.2,0.8-2.5,0.8-3.9C376.9,11.7,375.9,9.4,373.7,7.8z"/>
		<path class="st4" d="M438.8,44h-5.2l-5-11.4h-23.5L399.9,44h-5l19.6-43.4h4.6L438.8,44z M416.8,6.3l-9.9,22h19.6L416.8,6.3z"/>
		<path class="st4" d="M468.8,42.1c-2.3-1.3-4.3-2.9-5.9-4.8c-1.6-1.9-2.9-4.2-3.8-6.7s-1.4-5.2-1.4-8.1c0-3.1,0.5-6,1.6-8.7
			c1.1-2.7,2.6-5.1,4.5-7.1c1.9-2,4.2-3.6,6.9-4.8c2.7-1.2,5.6-1.8,8.7-1.8c2,0,3.7,0.2,5.3,0.5c1.6,0.3,3,0.8,4.4,1.4
			c1.4,0.6,2.6,1.3,3.8,2.2c1.1,0.8,2.3,1.8,3.3,2.8l-3.3,3.6c-1.8-1.7-3.8-3.1-5.9-4.2c-2.1-1.1-4.6-1.7-7.6-1.7
			c-2.4,0-4.6,0.5-6.6,1.4s-3.8,2.2-5.3,3.8c-1.5,1.6-2.7,3.5-3.5,5.6c-0.8,2.2-1.3,4.5-1.3,7c0,2.5,0.4,4.8,1.3,7
			c0.8,2.2,2,4.1,3.5,5.7c1.5,1.6,3.3,2.9,5.3,3.8c2,0.9,4.2,1.4,6.6,1.4c3,0,5.5-0.5,7.6-1.6c2.1-1.1,4.2-2.6,6.3-4.6l3.2,3.1
			c-1.1,1.1-2.2,2.1-3.3,3c-1.2,0.9-2.4,1.7-3.7,2.3c-1.3,0.7-2.7,1.2-4.2,1.6c-1.5,0.4-3.2,0.6-5,0.7l-4.1,8.8l-4.6-2.1l4.7-6.9
			C473.6,44.2,471.1,43.4,468.8,42.1z"/>
		<path class="st4" d="M557.8,30.9c-1.1,2.7-2.6,5.1-4.5,7.1c-1.9,2.1-4.2,3.7-7,4.9s-5.7,1.8-9,1.8c-3.3,0-6.3-0.6-9-1.8
			c-2.7-1.2-5-2.8-6.9-4.8c-1.9-2-3.4-4.4-4.5-7.1c-1-2.7-1.6-5.5-1.6-8.5c0-3,0.5-5.8,1.6-8.5c1.1-2.7,2.6-5.1,4.5-7.1
			c1.9-2.1,4.2-3.7,7-4.9s5.7-1.8,9-1.8c3.3,0,6.3,0.6,9,1.8c2.7,1.2,5,2.8,6.9,4.8c1.9,2,3.4,4.4,4.5,7.1s1.6,5.5,1.6,8.5
			C559.4,25.4,558.9,28.2,557.8,30.9z M553.1,15.6c-0.8-2.2-2-4.1-3.5-5.7c-1.5-1.6-3.3-2.9-5.4-3.8c-2.1-0.9-4.3-1.4-6.8-1.4
			c-2.5,0-4.7,0.5-6.8,1.4c-2.1,0.9-3.8,2.2-5.3,3.8c-1.5,1.6-2.6,3.5-3.5,5.6c-0.8,2.2-1.3,4.5-1.3,6.9s0.4,4.8,1.3,7
			c0.8,2.2,2,4.1,3.5,5.7c1.5,1.6,3.3,2.9,5.4,3.8c2.1,0.9,4.3,1.4,6.8,1.4c2.5,0,4.7-0.5,6.8-1.4c2.1-0.9,3.8-2.2,5.3-3.8
			c1.5-1.6,2.6-3.5,3.5-5.6c0.8-2.2,1.3-4.5,1.3-6.9C554.4,20.1,553.9,17.7,553.1,15.6z"/>
		<path class="st4" d="M279.2,111.4c-1.1,2.6-2.7,4.9-4.7,6.9c-2,1.9-4.5,3.4-7.3,4.6c-2.8,1.1-5.9,1.7-9.3,1.7h-15V81.4h15
			c3.4,0,6.5,0.5,9.3,1.6c2.8,1.1,5.2,2.6,7.3,4.5c2,1.9,3.6,4.2,4.7,6.8c1.1,2.6,1.7,5.5,1.7,8.5
			C280.9,105.9,280.3,108.8,279.2,111.4z M274.6,96.3c-0.8-2.1-2-3.9-3.6-5.4c-1.5-1.5-3.4-2.7-5.6-3.6s-4.7-1.3-7.4-1.3h-10.1V120
			H258c2.7,0,5.2-0.4,7.4-1.3c2.2-0.9,4.1-2.1,5.6-3.6c1.5-1.5,2.7-3.3,3.6-5.4c0.8-2.1,1.3-4.3,1.3-6.7
			C275.8,100.7,275.4,98.4,274.6,96.3z"/>
		<path class="st4" d="M334.6,85.9h-26.3v14.7h23.5v4.4h-23.5v15.1h26.6v4.4h-31.5V81.4h31.2V85.9z"/>
		<path class="st4" d="M424,111.4c-1.1,2.6-2.7,4.9-4.7,6.9c-2,1.9-4.5,3.4-7.3,4.6c-2.8,1.1-5.9,1.7-9.3,1.7h-15V81.4h15
			c3.4,0,6.5,0.5,9.3,1.6c2.8,1.1,5.2,2.6,7.3,4.5c2,1.9,3.6,4.2,4.7,6.8c1.1,2.6,1.7,5.5,1.7,8.5
			C425.7,105.9,425.1,108.8,424,111.4z M419.4,96.3c-0.8-2.1-2-3.9-3.6-5.4c-1.5-1.5-3.4-2.7-5.6-3.6c-2.2-0.9-4.7-1.3-7.4-1.3
			h-10.1V120h10.1c2.7,0,5.2-0.4,7.4-1.3c2.2-0.9,4.1-2.1,5.6-3.6c1.5-1.5,2.7-3.3,3.6-5.4c0.8-2.1,1.3-4.3,1.3-6.7
			C420.7,100.7,420.2,98.4,419.4,96.3z"/>
		<path class="st4" d="M485.6,124.5h-5.2l-5-11.4h-23.5l-5.1,11.4h-5l19.6-43.4h4.6L485.6,124.5z M463.6,86.8l-9.9,22h19.6
			L463.6,86.8z"/>
		<path class="st4" d="M538.1,81.4h4.7v43.1H539l-27.8-35.3v35.3h-4.7V81.4h4.6l27.2,34.5V81.4z"/>
		<path class="st4" d="M576.6,122.6c-2.3-1.3-4.3-2.9-5.9-4.8c-1.6-1.9-2.9-4.2-3.8-6.7c-0.9-2.5-1.4-5.2-1.4-8.1
			c0-3.1,0.5-6,1.6-8.7c1.1-2.7,2.6-5.1,4.5-7.1c1.9-2,4.2-3.6,6.9-4.8c2.7-1.2,5.6-1.8,8.7-1.8c2,0,3.7,0.2,5.3,0.5
			c1.6,0.3,3,0.8,4.4,1.4c1.4,0.6,2.6,1.3,3.8,2.2c1.1,0.8,2.3,1.8,3.3,2.8l-3.3,3.6c-1.8-1.7-3.8-3.1-5.9-4.2
			c-2.1-1.1-4.6-1.7-7.6-1.7c-2.4,0-4.6,0.5-6.6,1.4s-3.8,2.2-5.3,3.8c-1.5,1.6-2.7,3.5-3.5,5.6c-0.8,2.2-1.3,4.5-1.3,7
			c0,2.5,0.4,4.8,1.3,7c0.8,2.2,2,4.1,3.5,5.7c1.5,1.6,3.3,2.9,5.3,3.8c2,0.9,4.2,1.4,6.6,1.4c3,0,5.5-0.5,7.6-1.6
			c2.1-1.1,4.2-2.6,6.3-4.6l3.2,3.1c-1.1,1.1-2.2,2.1-3.3,3c-1.1,0.9-2.4,1.7-3.7,2.3c-1.3,0.7-2.7,1.2-4.2,1.6
			c-1.5,0.4-3.2,0.6-5,0.7l-4.1,8.8l-4.6-2.1l4.7-6.9C581.4,124.7,578.9,123.9,576.6,122.6z"/>
		<path class="st4" d="M665.3,124.5H660l-5-11.4h-23.5l-5.1,11.4h-5l19.6-43.4h4.6L665.3,124.5z M643.3,86.8l-9.9,22h19.6
			L643.3,86.8z"/>
	</g>
	<g id="_x31__4_">
		<path class="st3" d="M613.4,227.9c-16.3,5.5-32.8,11-49.8,13.9c-2.9,0.5-5.9,0.9-8.9,1.1c-12.9,0.5-24.8,0.1-35.8-1.3
			c-11-1.3-21.6-4.1-32-8.2c-10.4-4.1-18.6-7.9-24.8-11.1c-6.2-3.3-15-8.2-26.5-14.8l-7.3-4.4c-10.7-6.3-53.7-27-54.1-27
			c0,0-1.4-0.6-3.6-1.5c-2.5-1-6.1-2.5-10-4.1c-7.6-3-16.2-6.3-20.3-7.4c-2.6-0.7-5.9-1.4-9.7-2.2c-3.2-0.6-6.6-1.2-10-1.7
			c-5.4-0.7-10.8-1.2-15.4-1c-46,2-59,8.9-67.3,10.8c-1.8,0.4-3.6,0.8-5.3,1.2L165.2,0.9h-28.1l-5.5,12.8L68,171.1l-4.7-2.2
			c-4.4-2.2-11.1-5.5-20.1-9.9c-8.5-4.1-15-7.2-19.5-9.3c-4.5-2.1-11-4.7-19.4-8c-1.3-0.5-2.5-0.9-3.7-1.4l63.7,37.4l-1.1,4.8
			l-28.1,69h7.3l28.9-70.9l4.4,1.8c1.9,0.7,3.8,1.5,5.5,2.2l1.8,0.7c22.4,7.8,44.7,11.4,66.8,11c9-0.2,18-1,26.9-2.4
			c8.2-1.3,28.3-6.7,29.6-7.4l25.3,65.3h34l-1.1-2.9L237,181.2c29.6-7.3,59.4-7.2,83.6-2.4c3.5,0.7,6.8,1.5,10,2.4
			c7.5,2,14.3,4.6,20.2,7.5c3.2,1.6,6.5,3.2,9.8,4.8c3.3,1.6,6.7,3.3,10,4.9c11.6,5.6,23.2,11,34.8,16.5
			c22.1,10.4,44.3,21.8,67.6,29c31.6,9.7,65.2,8.3,97,0.6c33.1-8,64.3-22.2,95.2-36.3C648.5,215.8,631,222,613.4,227.9z
			 M199.9,181.8c-3.1,1.2-7,2.6-7.6,2.7c-13.2,4-27.6,5.2-41.4,5.2c-24.4,0-48.6-4.7-72.7-14.2l-4.4-1.8l63.9-160
			c0,0,66.1,166,66.1,166.2C204,180.1,202.2,180.9,199.9,181.8z"/>
	</g>
</g>
</svg>
