<svg xmlns="http://www.w3.org/2000/svg" viewBox="0 0 1080 1080"><defs><style>.cls-1{fill:#fff;}.cls-2{fill:#191919;}</style></defs><g id="Camada_2" data-name="Camada 2"><g id="Camada_1-2" data-name="Camada 1"><g id="_3" data-name="3"><rect class="cls-1" width="1080" height="1080"/><path class="cls-2" d="M480.31,421.38H454v14.71h23.52v4.44H454v15.08h26.6v4.44H449.16V417h31.15Z"/><path class="cls-2" d="M507,430.45a5.57,5.57,0,0,0,1.79,2.25,13.09,13.09,0,0,0,3.57,1.85,43.15,43.15,0,0,0,5.85,1.57q7.2,1.61,10.62,4.44a9.62,9.62,0,0,1,3.42,7.83,11.58,11.58,0,0,1-1.1,5.06,11.35,11.35,0,0,1-3,3.88,13.58,13.58,0,0,1-4.63,2.47,19.49,19.49,0,0,1-5.91.86,25.84,25.84,0,0,1-9.45-1.67,26.74,26.74,0,0,1-8.16-5.16l3-3.57a25.46,25.46,0,0,0,6.83,4.58,19.61,19.61,0,0,0,7.95,1.51,11.1,11.1,0,0,0,7-2,6.47,6.47,0,0,0,2.62-5.37,7.12,7.12,0,0,0-.49-2.74,5.58,5.58,0,0,0-1.73-2.19,12.35,12.35,0,0,0-3.43-1.79,44,44,0,0,0-5.58-1.54,45.32,45.32,0,0,1-6.45-1.85,16.13,16.13,0,0,1-4.54-2.53,9.31,9.31,0,0,1-2.65-3.45,11.59,11.59,0,0,1-.86-4.69,10.7,10.7,0,0,1,1-4.75,11,11,0,0,1,3-3.73,14.21,14.21,0,0,1,4.49-2.46,17.16,17.16,0,0,1,5.67-.9,23.9,23.9,0,0,1,8.28,1.31,25,25,0,0,1,6.86,3.92l-2.83,3.76a21.09,21.09,0,0,0-6.06-3.57,18.54,18.54,0,0,0-6.38-1.11,12.1,12.1,0,0,0-3.78.56,9.53,9.53,0,0,0-2.9,1.48,6.23,6.23,0,0,0-1.84,2.22,6.1,6.1,0,0,0-.65,2.77A7.44,7.44,0,0,0,507,430.45Z"/><path class="cls-2" d="M585.35,436.83a13,13,0,0,1-3.66,4.44,15.92,15.92,0,0,1-5.39,2.67,23.15,23.15,0,0,1-6.53.9H559.31v15.21h-4.87V417h16.13a21.87,21.87,0,0,1,6.62.95,15.19,15.19,0,0,1,5.11,2.71,11.69,11.69,0,0,1,3.27,4.31,14.13,14.13,0,0,1,1.13,5.76A13.33,13.33,0,0,1,585.35,436.83Zm-6.69-13a13.77,13.77,0,0,0-8.43-2.37H559.31v19H570a16.37,16.37,0,0,0,4.84-.67,11.3,11.3,0,0,0,3.77-1.94,8.56,8.56,0,0,0,2.41-3,9.07,9.07,0,0,0,.83-3.91A8.23,8.23,0,0,0,578.66,423.81Z"/><path class="cls-2" d="M643.72,460.05h-5.24l-5-11.39H610l-5.11,11.39h-5l19.64-43.41h4.56Zm-22-37.68-9.85,22h19.64Z"/><path class="cls-2" d="M673.76,458.17a20.35,20.35,0,0,1-5.91-4.81,22.1,22.1,0,0,1-3.85-6.71,23.42,23.42,0,0,1-1.38-8.09,23,23,0,0,1,1.63-8.68,22.26,22.26,0,0,1,4.53-7.11,20.91,20.91,0,0,1,6.89-4.81,21.52,21.52,0,0,1,8.74-1.75,26.22,26.22,0,0,1,5.33.49,21.77,21.77,0,0,1,4.4,1.39,19.52,19.52,0,0,1,3.76,2.15,33.27,33.27,0,0,1,3.32,2.8l-3.32,3.57a27.19,27.19,0,0,0-5.94-4.24,16.63,16.63,0,0,0-19.52,3.44,17.34,17.34,0,0,0-3.51,5.64,19,19,0,0,0-1.26,7,19.28,19.28,0,0,0,1.26,7,17.27,17.27,0,0,0,3.51,5.67,16.52,16.52,0,0,0,5.29,3.78,15.74,15.74,0,0,0,6.62,1.39,16.63,16.63,0,0,0,7.64-1.63,26.92,26.92,0,0,0,6.28-4.59l3.2,3.14a30.78,30.78,0,0,1-3.33,3,23.33,23.33,0,0,1-3.69,2.31,21.66,21.66,0,0,1-4.25,1.57,24.4,24.4,0,0,1-5,.7l-4.06,8.81-4.62-2.1,4.74-6.89A21.8,21.8,0,0,1,673.76,458.17Z"/><path class="cls-2" d="M762.73,447a22.43,22.43,0,0,1-4.49,7.11,21.32,21.32,0,0,1-7,4.9,23.34,23.34,0,0,1-17.95,0,21.37,21.37,0,0,1-6.93-4.83,21.7,21.7,0,0,1-4.46-7.08,23.27,23.27,0,0,1-1.57-8.53A22.85,22.85,0,0,1,722,430a22.28,22.28,0,0,1,4.5-7.11,21.47,21.47,0,0,1,6.95-4.9,23.34,23.34,0,0,1,18,0,21.22,21.22,0,0,1,11.39,11.92,23.22,23.22,0,0,1,1.57,8.52A22.85,22.85,0,0,1,762.73,447ZM758,431.6a16.91,16.91,0,0,0-8.93-9.48,16.11,16.11,0,0,0-6.8-1.42,16.41,16.41,0,0,0-6.8,1.39,16,16,0,0,0-5.33,3.78,17.72,17.72,0,0,0-3.48,5.64,18.86,18.86,0,0,0-1.26,6.92,19.11,19.11,0,0,0,1.26,7,16.83,16.83,0,0,0,8.93,9.48,16.11,16.11,0,0,0,6.8,1.42,16.49,16.49,0,0,0,6.81-1.39,16,16,0,0,0,5.32-3.78,17.61,17.61,0,0,0,3.48-5.64,18.86,18.86,0,0,0,1.26-6.92A19.15,19.15,0,0,0,758,431.6Z"/><path class="cls-2" d="M484.15,527.47a20.11,20.11,0,0,1-4.71,6.86,22.23,22.23,0,0,1-7.27,4.56,25.21,25.21,0,0,1-9.26,1.66H448v-43.1h15a25.62,25.62,0,0,1,9.26,1.63,21.83,21.83,0,0,1,7.27,4.53,20.09,20.09,0,0,1,4.71,6.83,21.62,21.62,0,0,1,1.66,8.5A21.84,21.84,0,0,1,484.15,527.47Zm-4.65-15.12a16.12,16.12,0,0,0-3.57-5.45,16.46,16.46,0,0,0-5.63-3.63,19.88,19.88,0,0,0-7.39-1.33h-10.1v34.11h10.1a20.29,20.29,0,0,0,7.39-1.29,15.88,15.88,0,0,0,9.2-9,17.54,17.54,0,0,0,1.26-6.71A17.84,17.84,0,0,0,479.5,512.35Z"/><path class="cls-2" d="M539.56,501.88H513.27V516.6h23.52V521H513.27v15.09h26.6v4.43H508.41v-43.1h31.15Z"/><path class="cls-2" d="M629,527.47a20.11,20.11,0,0,1-4.71,6.86,22.33,22.33,0,0,1-7.27,4.56,25.21,25.21,0,0,1-9.26,1.66h-15v-43.1h15a25.62,25.62,0,0,1,9.26,1.63,21.94,21.94,0,0,1,7.27,4.53,20.09,20.09,0,0,1,4.71,6.83,21.62,21.62,0,0,1,1.66,8.5A21.84,21.84,0,0,1,629,527.47Zm-4.65-15.12a16.12,16.12,0,0,0-3.57-5.45,16.46,16.46,0,0,0-5.63-3.63,19.88,19.88,0,0,0-7.39-1.33h-10.1v34.11h10.1a20.29,20.29,0,0,0,7.39-1.29,15.88,15.88,0,0,0,9.2-9,17.54,17.54,0,0,0,1.26-6.71A17.84,17.84,0,0,0,624.31,512.35Z"/><path class="cls-2" d="M690.53,540.55H685.3l-5-11.39H656.79l-5.11,11.39h-5l19.64-43.41h4.56Zm-22-37.68-9.85,22h19.64Z"/><path class="cls-2" d="M743.05,497.45h4.74v43.1h-3.88l-27.83-35.34v35.34h-4.74v-43.1h4.55L743.05,532Z"/><path class="cls-2" d="M781.53,538.67a20.32,20.32,0,0,1-5.91-4.8,21.93,21.93,0,0,1-3.85-6.71,23.52,23.52,0,0,1-1.39-8.1,23,23,0,0,1,1.64-8.68,22.07,22.07,0,0,1,4.52-7.11,21.08,21.08,0,0,1,6.9-4.8,21.49,21.49,0,0,1,8.74-1.76,26.84,26.84,0,0,1,5.32.49,22.74,22.74,0,0,1,4.41,1.39,19.75,19.75,0,0,1,3.75,2.15,33.49,33.49,0,0,1,3.33,2.81l-3.33,3.57a27,27,0,0,0-5.94-4.25,16.62,16.62,0,0,0-19.52,3.45,17.46,17.46,0,0,0-3.51,5.63,19,19,0,0,0-1.26,7,19.36,19.36,0,0,0,1.26,7,17.49,17.49,0,0,0,3.51,5.66,16.74,16.74,0,0,0,5.3,3.79,15.86,15.86,0,0,0,6.62,1.38,16.58,16.58,0,0,0,7.63-1.63,26.23,26.23,0,0,0,6.28-4.59l3.2,3.14a28.83,28.83,0,0,1-3.32,3,23.33,23.33,0,0,1-3.69,2.31,21.5,21.5,0,0,1-4.25,1.57,25.09,25.09,0,0,1-5,.71l-4.06,8.8L784.3,548l4.74-6.9A21.73,21.73,0,0,1,781.53,538.67Z"/><path class="cls-2" d="M870.19,540.55H865l-5.05-11.39H836.45l-5.11,11.39h-5L846,497.14h4.56Zm-22-37.68-9.85,22H858Z"/><g id="_1" data-name="1"><path class="cls-2" d="M818.36,643.93c-16.26,5.46-32.85,11-49.78,13.88a69.77,69.77,0,0,1-8.89,1.05,224.2,224.2,0,0,1-35.8-1.27,127,127,0,0,1-32-8.22,266.73,266.73,0,0,1-24.83-11.14q-9.33-4.93-26.49-14.79l-7.3-4.39c-10.68-6.31-53.68-27-54.07-27l-3.63-1.51c-2.54-1-6.15-2.52-10.05-4.08-7.56-3-16.22-6.34-20.29-7.38-2.55-.65-5.9-1.43-9.66-2.17-3.16-.61-6.58-1.21-10.05-1.68a89.5,89.5,0,0,0-15.43-1c-46,2-59,8.86-67.28,10.83-1.78.37-3.55.78-5.33,1.19L370.13,416.89H342l-5.49,12.79L273,587.12l-4.75-2.19q-6.59-3.28-20.09-9.87-12.8-6.21-19.54-9.31t-19.36-8l-3.66-1.4,63.75,37.38-1.1,4.75-28.13,69h7.31l28.85-70.87,4.39,1.83q2.91,1.09,5.48,2.19l1.83.73a189.53,189.53,0,0,0,66.84,11,208.06,208.06,0,0,0,26.95-2.42c8.18-1.3,28.26-6.7,29.61-7.37l25.26,65.31h34l-1.09-2.93L442,597.19c29.62-7.29,59.43-7.2,83.6-2.39q5.22,1,10.05,2.36a109.33,109.33,0,0,1,20.18,7.51q4.88,2.45,9.77,4.82t10.05,4.88c11.55,5.55,23.18,11,34.78,16.45,22.1,10.38,44.32,21.78,67.64,29,31.57,9.74,65.17,8.31,97,.62,33.07-8,64.25-22.19,95.21-36.31C853.39,631.8,835.93,638,818.36,643.93ZM404.87,597.79c-3.13,1.21-7,2.57-7.61,2.74-13.19,4-27.63,5.21-41.37,5.21q-36.54,0-72.7-14.24l-4.38-1.82,63.92-160s66,166,66.12,166.21S407.11,596.91,404.87,597.79Z"/></g></g></g></g></svg>